PathFileType	4	(X/Y/Z)	S01_0016_Gait_markers.trc
DataRate	CameraRate	NumFrames	NumMarkers	Units	OrigDataRate	OrigDataStartFrame	OrigNumFrames
250.000000	250.000000	4	54	mm	250.000000	222	356
Frame#	Time	HEAD_ANT			R_HEAD			L_HEAD			C7			R_BACK			L_BACK			STERNUM			R_ACROMION			R_HUM_PROX			R_HUM_ANT			R_HUM_POST			R_ELBOW_LAT			R_ELBOW_MED			R_FOREARM			R_WIRST_LAT			R_WRITS_MED			R_HAND			L_ACROMION			L_HUM_PROX			L_HUM_ANT			L_HUM_POST			L_ELBOW_LAT			L_ELBOW_MED			L_FOREARM			L_WRIST_LAT			L_WIRST_MED			L_HAND			R_ILIAC			SACRUM			L_ILIAC			R_GTROCH			R_THIGH__1			R_THIGH_2			R_THIGH_3			R_THIGH_4			R_SHANK_1			R_SHANK_2			R_SHANK_3			R_SHANK_4			R_HEEL			R_FOOT_LAT			R_FOOT_MED			L_GTROCH			L_THIGH_1			L_THIGH_2			L_THIGH_3			L_THIGH_4			L_SHANK_1			L_SHANK_2			L_SHANK_3			L_SHANK_4			L_HEEL			L_FOOT_LAT			L_FOOT_MED			
		X1	Y1	Z1	X2	Y2	Z2	X3	Y3	Z3	X4	Y4	Z4	X5	Y5	Z5	X6	Y6	Z6	X7	Y7	Z7	X8	Y8	Z8	X9	Y9	Z9	X10	Y10	Z10	X11	Y11	Z11	X12	Y12	Z12	X13	Y13	Z13	X14	Y14	Z14	X15	Y15	Z15	X16	Y16	Z16	X17	Y17	Z17	X18	Y18	Z18	X19	Y19	Z19	X20	Y20	Z20	X21	Y21	Z21	X22	Y22	Z22	X23	Y23	Z23	X24	Y24	Z24	X25	Y25	Z25	X26	Y26	Z26	X27	Y27	Z27	X28	Y28	Z28	X29	Y29	Z29	X30	Y30	Z30	X31	Y31	Z31	X32	Y32	Z32	X33	Y33	Z33	X34	Y34	Z34	X35	Y35	Z35	X36	Y36	Z36	X37	Y37	Z37	X38	Y38	Z38	X39	Y39	Z39	X40	Y40	Z40	X41	Y41	Z41	X42	Y42	Z42	X43	Y43	Z43	X44	Y44	Z44	X45	Y45	Z45	X46	Y46	Z46	X47	Y47	Z47	X48	Y48	Z48	X49	Y49	Z49	X50	Y50	Z50	X51	Y51	Z51	X52	Y52	Z52	X53	Y53	Z53	X54	Y54	Z54	

223	0.888	1268.570434570312	1733.856201171875	-333.5793151855465	1211.446655273438	1686.545532226562	-252.7387847900387	1211.303833007812	1679.086303710938	-400.0098876953121	1075.543823242188	1511.46533203125	-320.7485656738278	1001.004943847656	1318.54541015625	-247.8454742431638	1005.317504882812	1317.125	-390.1447143554685	1255.108642578125	1349.197509765625	-313.1124267578122	1150.4150390625	1468.65283203125	-147.6130371093747	1114.962890625	1311.8369140625	-53.94805526733369	1177.290405273438	1226.855346679688	-50.42593383789035	1056.25244140625	1228.080688476562	-39.4585990905759	1102.457641601562	1121.884033203125	-32.56324386596655	1085.10888671875	1114.575927734375	-113.5413970947263	1210.94287109375	942.2361450195312	-23.81517982482889	1252.014770507812	876.7186279296875	-62.49902725219707	1184.425048828125	852.6160278320312	-22.95468139648419	1257.23974609375	790.0265502929688	-5.052665710449043	1158.796752929688	1461.178833007812	-484.9736022949215	1132.469970703125	1294.260986328125	-577.6951293945309	1191.034057617188	1210.935546875	-576.6017456054685	1070.010498046875	1219.005737304688	-601.606262207031	1124.820190429688	1111.112670898438	-607.6033935546873	1074.565307617188	1108.435302734375	-551.3058471679685	1219.309204101562	931.3260498046876	-592.8503417968748	1244.965576171875	868.8742065429689	-539.6893310546873	1201.58544921875	850.0242309570314	-602.9772338867185	1273.306640625	788.5384521484376	-587.352111816406	1129.659057617188	1056.24365234375	-143.7135009765623	1021.961975097656	1036.047119140625	-328.0400695800779	1163.102783203125	1061.634033203125	-489.1102905273435	1076.169189453125	908.7666625976562	-138.3016510009764	1105.989990234375	630.7066040039062	-146.9722747802733	1162.012939453125	644.0901489257812	-133.2021636962889	1165.139038085938	539.2517700195312	-156.8915252685546	1100.400390625	549.8766479492188	-160.7471618652343	975.2723999023438	403.6207885742188	-152.0159606933593	995.2264404296875	348.9399414062501	-167.2576141357421	928.1663818359375	298.2084350585938	-187.7454528808593	892.232421875	349.4703674316407	-177.3489685058593	723.0833129882812	265.1824645996094	-266.0231018066406	743.1679077148438	92.07701873779301	-212.1176605224609	796.9354858398438	73.29779052734382	-298.2711791992188	1139.876586914062	951.8895263671876	-499.8583984374998	1292.025146484375	681.6188964843751	-456.5340270996092	1239.281127929688	686.2344970703126	-484.0178222656248	1241.909912109375	584.7946166992189	-449.8326110839843	1301.348999023438	604.0168457031251	-430.0004882812499	1280.619384765625	323.6657104492189	-421.8954162597656	1224.034057617188	304.8741149902345	-432.8018798828124	1213.962036132812	220.0869140625001	-414.3063354492187	1275.4052734375	223.9537658691407	-395.0313720703124	1149.942260742188	41.75821304321297	-343.4366149902344	1330.260131835938	21.42371559143075	-400.5506591796875	1359.600463867188	25.53949928283698	-288.9417724609375	
224	0.892	1274.285888671875	1734.82958984375	-333.7080383300777	1216.96728515625	1687.499267578125	-252.7684478759762	1217.186645507812	1679.996826171875	-400.0306701660152	1081.08837890625	1512.492065429688	-320.7129211425778	1006.324340820312	1319.317504882812	-248.767883300781	1010.909851074219	1318.077880859375	-390.471496582031	1260.568969726562	1350.133056640625	-312.7762145996091	1155.439086914062	1469.64208984375	-147.4864959716794	1119.809448242188	1312.945434570312	-53.95172119140596	1182.097900390625	1227.946044921875	-50.42641830444309	1061.04443359375	1229.21337890625	-39.38665390014621	1106.912231445312	1123.214965820312	-32.37794113159155	1089.333129882812	1115.888671875	-113.505920410156	1214.816040039062	943.0205078125	-23.20166206359842	1255.452270507812	877.138916015625	-62.06243896484356	1187.87158203125	853.6363525390625	-22.23261642456036	1260.132446289062	790.3923950195312	-4.547136306762519	1164.560424804688	1462.167358398438	-484.8550415039059	1138.917602539062	1295.410766601563	-577.7182006835934	1197.376220703125	1212.053955078125	-574.985900878906	1076.84033203125	1220.474731445313	-602.8880615234373	1131.255493164062	1112.244140625	-607.981262207031	1079.07568359375	1109.880615234375	-551.871643066406	1226.347534179688	932.8992919921876	-592.0805053710935	1251.71728515625	870.2828369140626	-539.0212402343748	1209.00927734375	851.2998657226564	-602.442687988281	1280.945556640625	790.1087646484376	-586.7124023437498	1133.944213867188	1056.85205078125	-143.6142883300779	1028.07080078125	1036.9658203125	-327.8187561035154	1168.722900390625	1062.4345703125	-489.1743469238279	1081.980346679688	909.7579345703125	-138.3459625244139	1115.121826171875	631.8516845703125	-146.0568847656249	1171.0927734375	645.322509765625	-132.5654907226561	1175.141357421875	540.535400390625	-156.1058349609374	1110.241943359375	550.708740234375	-160.1240234374999	985.8558959960938	404.9828186035157	-151.9307861328124	1005.66552734375	350.1983337402344	-166.4477386474609	938.6529541015625	299.4804382324219	-187.5180969238281	902.673828125	350.6042785644532	-177.0753173828124	733.46044921875	265.5011901855469	-266.5563659667968	755.7985229492188	93.33554840087895	-210.2100677490234	809.5835571289062	73.8276672363282	-296.1294860839844	1145.697631835938	952.5350952148439	-499.8438720703123	1295.161743164062	681.1842651367189	-456.9815368652342	1242.58740234375	686.4504394531251	-484.0465698242186	1244.434448242188	584.8111572265626	-449.6419372558593	1304.3671875	603.6723022460939	-429.6535644531249	1281.9091796875	323.4687500000001	-421.8539123535156	1225.060180664062	304.8365478515626	-432.9172973632812	1214.82373046875	220.173797607422	-414.4718933105468	1276.124755859375	223.7618713378907	-395.1423645019531	1149.97900390625	41.95195007324227	-343.4405517578125	1330.289672851562	21.37866973876962	-400.5984497070312	1359.612670898438	25.53912353515631	-288.9820556640625	
225	0.896	1279.967041015625	1735.737182617188	-333.7613525390621	1222.689697265625	1688.640625	-252.8947906494137	1222.652954101562	1680.97998046875	-400.2442932128902	1086.45703125	1513.484375	-320.977630615234	1011.849914550781	1319.968505859375	-249.4682617187497	1016.5322265625	1319.081420898438	-390.5247497558591	1265.926879882812	1351.11865234375	-312.114074707031	1160.438598632812	1470.809936523438	-147.4248352050778	1124.71484375	1314.0595703125	-54.03915405273408	1186.870361328125	1229.04931640625	-50.58553314208957	1065.722045898438	1230.431030273438	-39.32516098022434	1111.394287109375	1124.215942382812	-32.34191131591772	1093.814086914062	1116.911376953125	-113.2301864624021	1218.56884765625	943.851318359375	-22.68706321716288	1258.847534179688	877.6332397460938	-61.43902969360332	1191.841552734375	854.0811157226562	-22.11696815490704	1263.164916992188	790.8585205078125	-3.961330652236763	1170.329956054688	1463.305297851562	-484.749359130859	1145.302124023438	1296.421875	-577.7693481445309	1203.826049804688	1213.18994140625	-574.6011962890623	1083.466430664062	1221.520385742188	-603.8149414062498	1138.096557617188	1113.213500976563	-608.250061035156	1085.606323242188	1110.464721679688	-552.5780639648435	1233.3544921875	934.2725219726564	-591.7825927734373	1258.704956054688	871.7243041992189	-538.3820800781248	1216.2373046875	852.4755859375001	-602.170227050781	1288.403442382812	791.7420654296876	-586.2397460937498	1139.174560546875	1057.541137695312	-143.2684020996091	1033.467407226562	1038.07275390625	-327.7639465332029	1173.136108398438	1062.671508789062	-488.6625366210935	1087.655029296875	910.68017578125	-138.2517700195311	1124.220947265625	632.538330078125	-145.3720703124999	1180.046997070312	646.7423706054688	-132.1334075927733	1185.00146484375	542.0188598632812	-155.5653991699218	1120.017456054688	551.2899169921875	-159.3511657714843	996.1167602539062	406.1174011230469	-151.5405731201171	1015.979309082031	351.2331848144532	-166.3263397216796	949.2503051757812	300.7103881835938	-186.2348937988281	913.2421264648438	351.7250976562501	-177.1257781982421	743.89208984375	265.3487854003907	-266.8896789550781	768.5383911132812	94.43797302246098	-208.2814483642578	822.6324462890625	74.30180358886726	-293.5643310546875	1151.141967773438	953.3712158203126	-499.6101379394529	1298.330078125	681.0430908203126	-457.0374755859373	1245.81689453125	686.5452880859376	-484.0286865234373	1248.05419921875	585.3557739257814	-449.6191406249999	1306.921264648438	603.3242797851564	-429.9166870117186	1283.127685546875	323.1289672851564	-421.7095642089843	1226.352416992188	304.8843688964845	-433.1914062499999	1215.84033203125	220.175277709961	-414.5177001953124	1276.845336914062	223.5828399658204	-395.1317749023437	1150.022094726562	42.10012435913094	-343.509033203125	1330.30517578125	21.33801078796396	-400.6577453613281	1359.6142578125	25.53396797180182	-289.0275573730469	
226	0.9	1285.720703125	1736.674438476562	-333.842620849609	1228.415649414062	1689.662963867188	-252.8814697265621	1228.513061523438	1681.976196289062	-400.3801269531246	1091.927612304688	1514.485595703125	-321.1744384765622	1017.219055175781	1320.69580078125	-250.2458038330075	1022.116394042969	1320.045654296875	-390.7347412109372	1271.186279296875	1352.1669921875	-311.5538330078122	1165.3720703125	1471.92431640625	-147.2936859130856	1129.358520507812	1315.1708984375	-54.12309646606416	1191.569213867188	1230.030029296875	-50.61602020263645	1070.567749023438	1231.344848632812	-39.31595611572239	1115.925415039062	1125.407104492188	-32.22241592407202	1098.022094726562	1118.152099609375	-113.2011413574216	1222.270385742188	944.6282348632812	-22.22097778320292	1262.301635742188	878.2688598632812	-60.70055007934551	1195.239990234375	854.9168701171875	-21.37867164611798	1266.273681640625	791.49365234375	-3.302365779876533	1176.015380859375	1464.277587890625	-484.7290344238278	1151.72607421875	1297.623291015625	-577.6605834960934	1210.109375	1214.216064453125	-574.2023925781248	1090.070190429688	1222.704467773438	-604.525451660156	1144.76123046875	1114.529663085938	-608.370178222656	1092.134399414062	1111.487548828125	-552.915344238281	1240.529174804688	935.4621582031251	-591.574768066406	1265.756713867188	873.1064453125001	-537.7243041992185	1223.529418945312	853.7902832031251	-601.7990112304685	1295.997924804688	793.4450683593751	-585.612121582031	1144.380126953125	1058.377563476562	-143.1939849853513	1038.781982421875	1039.284790039062	-328.2727355957029	1178.401611328125	1063.330322265625	-488.5629577636716	1093.533203125	911.7068481445312	-138.2416076660154	1133.508178710938	633.457763671875	-145.2254791259764	1189.106323242188	648.1682739257812	-131.6207733154295	1194.798217773438	543.4142456054688	-155.0004882812499	1129.794677734375	552.2364501953125	-158.7241210937499	1006.564331054688	407.2596740722657	-151.7224121093749	1026.647705078125	352.3309936523438	-165.6189422607421	959.9304809570312	301.6412353515626	-185.8234863281249	923.8113403320312	352.3858947753907	-177.179962158203	754.5817260742188	265.2044372558594	-267.5044555664062	781.5821533203125	95.23194885253911	-206.4612884521484	835.8677368164062	74.45845031738288	-291.4835205078125	1156.359497070312	954.0030517578126	-499.4466552734373	1301.226440429688	680.6904907226564	-457.4586181640623	1248.875854492188	686.8231811523439	-484.3499450683592	1250.09228515625	585.3886108398439	-449.4946289062499	1309.56005859375	602.9619750976564	-430.0434265136718	1284.223510742188	323.003143310547	-421.6141967773437	1227.479736328125	304.9304504394532	-433.3560180664062	1216.612426757812	220.2304840087891	-414.6998291015624	1277.687744140625	223.4387817382813	-395.0092773437499	1150.03125	42.30277633667	-343.6369018554688	1330.305786132812	21.33229064941415	-400.6852416992188	1359.644775390625	25.51744270324713	-289.0889892578125	
